<?xml version="1.0" encoding="UTF-8"?>
<!--Qr，2008/9/16 http://Qr.blogger.org.cn-->
<svg
   xmlns:svg="http://www.w3.org/2000/svg"
   xmlns="http://www.w3.org/2000/svg"
   xmlns:xlink="http://www.w3.org/1999/xlink"
   xml:space="default"
   version="1.1"
   width="100%"
   height="100%" viewBox="0 0 1024 600">
	<defs>
	<script type="text/javascript">
		function ccolor(evt){
			evt.target.parentNode.setAttribute("fill", "white");
		}
		function bcolor(evt,color){
			evt.target.parentNode.setAttribute("fill", color);
		}
	</script>
	</defs>
	<g stroke-width="1" stroke="black">

	<g fill="rgb(45,62,104)" onmouseover="ccolor(evt)" onmouseout="bcolor(evt,'rgb(45,62,104)')">
		<path d="M 502 300 L 802 300 A 300 150 0 0 0 209.5216263454529 266.6218599065528 z"/>
		<path d="M 802 250 A 300 150 0 0 0 209.5216263454529 216.6218599065528 L 209.5216263454529 266.6218599065528 A 300 150 0 0 1 802 300 z"/>
		<path d="M 502 250 L 802 250 A 300 150 0 0 0 209.5216263454529 216.6218599065528 z"/>
	</g>
	<g fill="rgb(124,109,58)" onmouseover="ccolor(evt)" onmouseout="bcolor(evt,'rgb(124,109,58)')">
		<path d="M 502 300 L 209.5216263454529 266.6218599065528 A 300 150 0 0 0 217.62179614986047 347.77299753775264 z"/>
		<path d="M 209.5216263454529 216.6218599065528 A 300 150 0 0 0 217.62179614986047 297.77299753775264 L 217.62179614986047 347.77299753775264 A 300 150 0 0 1 209.5216263454529 266.6218599065528 z"/>
		<path d="M 202 250 A 300 150 0 0 0 217.62179614986047 297.77299753775264 L 217.62179614986047 347.77299753775264 A 300 150 0 0 1 202 300 z"/>
		<path d="M 502 250 L 209.5216263454529 216.6218599065528 A 300 150 0 0 0 217.62179614986047 297.77299753775264 z"/>
	</g>
	<g fill="rgb(203,175,62)" onmouseover="ccolor(evt)" onmouseout="bcolor(evt,'rgb(203,175,62)')">
		<path d="M 502 300 L 217.62179614986047 347.77299753775264 A 300 150 0 0 0 320.8586769023568 419.5698760834384 z"/>
		<path d="M 217.62179614986047 297.77299753775264 A 300 150 0 0 0 320.8586769023568 369.5698760834384 L 320.8586769023568 419.5698760834384 A 300 150 0 0 1 217.62179614986047 347.77299753775264 z"/>
		<path d="M 502 250 L 217.62179614986047 297.77299753775264 A 300 150 0 0 0 320.8586769023568 369.5698760834384 z"/>
	</g>
	<g fill="rgb(33,166,60)" onmouseover="ccolor(evt)" onmouseout="bcolor(evt,'rgb(33,166,60)')">
		<path d="M 502 300 L 716.7600547779157 195.26447728708916 A 300 150 0 0 0 502.00000000000034 150 z"/>
		<path d="M 716.7600547779157 145.26447728708916 A 300 150 0 0 0 502.00000000000034 100 L 502.00000000000034 150 A 300 150 0 0 1 716.7600547779157 195.26447728708916 z"/>
		<path d="M 502 250 L 716.7600547779157 145.26447728708916 A 300 150 0 0 0 502.00000000000034 100 z"/>
	</g>
	<g fill="rgb(115,57,65)" onmouseover="ccolor(evt)" onmouseout="bcolor(evt,'rgb(115,57,65)')">
		<path d="M 502 300 L 768.9615426434407 231.5684013970257 A 300 150 0 0 0 716.7600547779157 195.26447728708916 z"/>
		<path d="M 768.9615426434407 181.5684013970257 A 300 150 0 0 0 716.7600547779157 145.26447728708916 L 716.7600547779157 195.26447728708916 A 300 150 0 0 1 768.9615426434407 231.5684013970257 z"/>
		<path d="M 502 250 L 768.9615426434407 181.5684013970257 A 300 150 0 0 0 716.7600547779157 145.26447728708916 z"/>
	</g>
	<g fill="rgb(218,215,2)" onmouseover="ccolor(evt)" onmouseout="bcolor(evt,'rgb(218,215,2)')">
		<path d="M 502 300 L 775.4517556935018 361.6930654695919 A 300 150 0 0 0 768.9615426434407 231.5684013970257 z"/>
		<path d="M 775.4517556935018 311.6930654695919 A 300 150 0 0 0 768.9615426434407 181.5684013970257 L 768.9615426434407 231.5684013970257 A 300 150 0 0 1 775.4517556935018 361.6930654695919 z"/>
		<path d="M 775.4517556935018 311.6930654695919 A 300 150 0 0 0 802 250 L 802 300 A 300 150 0 0 1 775.4517556935018 361.6930654695919 z"/>
		<path d="M 502 250 L 775.4517556935018 311.6930654695919 A 300 150 0 0 0 768.9615426434407 181.5684013970257 z"/>
	</g>
	<g fill="rgb(193,12,80)" onmouseover="ccolor(evt)" onmouseout="bcolor(evt,'rgb(193,12,80)')">
		<path d="M 502 300 L 604.6060429977004 440.9538931178863 A 300 150 0 0 0 775.4517556935018 361.6930654695919 z"/>
		<path d="M 604.6060429977004 390.9538931178863 A 300 150 0 0 0 775.4517556935018 311.6930654695919 L 775.4517556935018 361.6930654695919 A 300 150 0 0 1 604.6060429977004 440.9538931178863 z"/>
		<path d="M 502 250 L 604.6060429977004 390.9538931178863 A 300 150 0 0 0 775.4517556935018 311.6930654695919 z"/>
	</g>
	<g fill="rgb(62,159,88)" onmouseover="ccolor(evt)" onmouseout="bcolor(evt,'rgb(62,159,88)')">
		<path d="M 502 300 L 320.8586769023568 419.5698760834384 A 300 150 0 0 0 604.6060429977004 440.9538931178863 z"/>
		<path d="M 320.8586769023568 369.5698760834384 A 300 150 0 0 0 604.6060429977004 390.9538931178863 L 604.6060429977004 440.9538931178863 A 300 150 0 0 1 320.8586769023568 419.5698760834384 z"/>
		<path d="M 502 250 L 320.8586769023568 369.5698760834384 A 300 150 0 0 0 604.6060429977004 390.9538931178863 z"/>
	</g>

	</g>
</svg>